<?xml version="1.0" standalone="no"?>
<!DOCTYPE svg PUBLIC "-//W3C//DTD SVG 20010904//EN"
 "http://www.w3.org/TR/2001/REC-SVG-20010904/DTD/svg10.dtd">
<svg version="1.0" xmlns="http://www.w3.org/2000/svg"
 width="16.000000pt" height="16.000000pt" viewBox="0 0 16.000000 16.000000"
 preserveAspectRatio="xMidYMid meet">
<metadata>
Created by potrace 1.11, written by Peter Selinger 2001-2013
</metadata>
<g transform="translate(0.000000,16.000000) scale(0.002286,-0.002286)"
fill="#000000" stroke="none">
<path d="M4675 5553 c-219 -45 -410 -211 -499 -436 -89 -225 -60 -489 82 -742
84 -150 179 -259 464 -531 214 -206 303 -379 254 -496 -23 -53 -40 -63 -59
-34 -54 82 -202 198 -342 269 -187 93 -458 176 -665 202 -30 4 -64 9 -75 11
-93 18 -455 25 -615 11 -82 -7 -103 -10 -180 -23 -19 -3 -48 -8 -65 -11 -137
-22 -256 -59 -557 -176 -287 -112 -481 -175 -688 -222 -261 -60 -344 -70 -555
-70 -127 0 -181 5 -264 23 -57 12 -121 22 -141 22 -44 0 -66 -20 -52 -47 13
-22 111 -117 217 -208 124 -107 194 -181 272 -290 110 -155 173 -213 288 -265
61 -28 175 -60 211 -60 57 0 204 112 204 155 0 25 17 17 29 -12 15 -40 41 -67
97 -101 101 -61 232 -91 389 -86 125 3 211 22 302 65 62 30 143 106 143 134 0
8 5 15 10 15 6 0 10 -7 10 -15 0 -22 67 -93 114 -120 142 -82 385 -104 581
-54 104 27 207 96 242 162 l16 32 12 -27 c48 -118 254 -199 490 -192 220 5
395 82 443 194 l15 35 8 -29 c4 -16 23 -44 41 -63 73 -75 189 -119 363 -138
31 -3 176 135 241 230 153 225 203 509 138 770 -63 247 -215 457 -491 674
-381 300 -577 627 -531 884 18 95 75 170 157 205 49 20 211 24 281 6 227 -59
404 -224 503 -469 46 -114 140 -304 204 -414 59 -101 229 -330 351 -476 138
-163 171 -186 204 -145 37 45 22 104 -78 305 -90 182 -98 220 -61 303 61 135
69 267 24 365 -39 85 -172 208 -293 270 -18 9 -103 88 -190 175 -256 256 -430
369 -659 426 -92 23 -251 28 -340 9z m1284 -913 c28 -14 33 -37 9 -36 -31 1
-47 -30 -26 -50 12 -13 20 -14 37 -5 25 14 27 4 6 -26 -18 -26 -47 -21 -74 13
-15 19 -17 32 -12 76 1 8 30 38 37 38 3 0 13 -4 23 -10z m41 -190 c0 -30 33
-90 69 -126 27 -27 30 -36 22 -57 -17 -44 0 -110 57 -222 105 -206 121 -248
113 -300 -13 -85 -116 17 -340 338 l-110 159 22 31 c12 18 43 55 69 84 36 38
48 60 48 82 0 26 4 31 25 31 18 0 25 -5 25 -20z"/>
<path d="M542 832 c-32 -25 -41 -89 -15 -120 27 -34 91 -40 121 -12 22 20 30
50 14 50 -5 0 -19 -12 -31 -26 -18 -20 -28 -24 -49 -19 -33 8 -42 21 -42 62 0
24 7 37 25 49 23 15 65 12 65 -6 0 -12 29 -20 35 -10 3 5 -3 18 -15 30 -25 25
-77 26 -108 2z"/>
<path d="M1093 843 c-7 -3 -13 -11 -13 -18 0 -7 -6 -16 -12 -19 -10 -5 -10 -7
0 -12 6 -3 12 -23 12 -44 0 -21 3 -45 6 -54 7 -17 54 -22 54 -6 0 6 -7 10 -15
10 -11 0 -15 12 -15 45 0 33 4 45 15 45 8 0 15 5 15 10 0 6 -6 10 -14 10 -8 0
-16 8 -18 18 -2 11 -9 17 -15 15z"/>
<path d="M1400 818 c0 -25 -3 -29 -12 -20 -18 18 -53 15 -71 -6 -23 -25 -21
-68 3 -92 22 -22 66 -27 73 -7 4 10 6 10 6 0 1 -7 8 -13 16 -13 12 0 15 16 15
85 0 69 -3 85 -15 85 -10 0 -15 -10 -15 -32z m-10 -47 c15 -30 12 -49 -11 -61
-25 -14 -49 2 -49 34 0 43 41 61 60 27z"/>
<path d="M1530 767 l0 -84 49 -1 c55 -1 68 8 77 55 8 43 -26 78 -67 69 -26 -5
-29 -3 -29 19 0 16 -6 25 -15 25 -12 0 -15 -16 -15 -83z m88 11 c30 -30 -2
-93 -36 -71 -21 13 -27 50 -12 69 15 17 32 18 48 2z"/>
<path d="M1918 835 c-32 -18 -42 -45 -34 -91 11 -54 67 -80 117 -54 13 7 19 7
19 0 0 -5 5 -10 10 -10 6 0 10 20 10 45 l0 45 -40 0 c-22 0 -40 -4 -40 -10 0
-5 12 -10 26 -10 35 0 29 -31 -9 -44 -57 -20 -96 67 -47 106 28 23 45 23 67
-1 12 -13 23 -17 32 -12 10 7 8 13 -10 30 -26 24 -63 26 -101 6z"/>
<path d="M2080 840 c0 -5 7 -10 15 -10 8 0 15 5 15 10 0 6 -7 10 -15 10 -8 0
-15 -4 -15 -10z"/>
<path d="M2140 765 c0 -69 3 -85 15 -85 12 0 15 16 15 85 0 69 -3 85 -15 85
-12 0 -15 -16 -15 -85z"/>
<path d="M2440 818 c0 -25 -3 -29 -12 -20 -32 32 -88 -1 -88 -51 0 -42 31 -65
84 -65 l46 1 0 84 c0 67 -3 83 -15 83 -10 0 -15 -10 -15 -32z m-10 -43 c15
-18 5 -64 -15 -72 -35 -13 -61 47 -33 75 16 16 33 15 48 -3z"/>
<path d="M2570 765 c0 -69 3 -85 15 -85 11 0 15 11 15 40 l0 40 40 0 c25 0 40
5 40 13 0 7 -14 12 -37 12 -32 0 -39 4 -41 23 -3 20 0 22 47 22 28 0 51 5 51
10 0 6 -28 10 -65 10 l-65 0 0 -85z"/>
<path d="M2800 840 c0 -5 7 -10 15 -10 8 0 15 5 15 10 0 6 -7 10 -15 10 -8 0
-15 -4 -15 -10z"/>
<path d="M3090 818 c0 -25 -3 -29 -12 -20 -35 35 -93 -9 -86 -65 4 -37 49 -63
78 -45 12 7 20 8 20 2 0 -5 7 -10 15 -10 12 0 15 16 15 85 0 69 -3 85 -15 85
-10 0 -15 -10 -15 -32z m-12 -40 c32 -32 -9 -96 -44 -67 -26 22 -11 79 21 79
6 0 16 -5 23 -12z"/>
<path d="M690 744 c0 -50 3 -64 15 -64 11 0 15 12 15 44 0 37 5 48 27 64 l26
19 -41 0 -42 0 0 -63z"/>
<path d="M790 790 c-56 -56 21 -143 86 -96 26 20 10 32 -21 16 -20 -11 -27
-11 -40 0 -23 19 -18 32 13 30 59 -4 72 -1 65 18 -19 52 -67 68 -103 32z m68
-17 c2 -9 -7 -13 -28 -13 -28 0 -31 2 -20 15 15 18 41 16 48 -2z"/>
<path d="M929 790 c-23 -19 -23 -19 -3 -20 11 0 25 5 31 11 13 13 43 5 43 -10
0 -5 -18 -12 -40 -16 -27 -4 -41 -13 -45 -26 -11 -33 11 -48 69 -46 l53 1 -5
51 c-2 27 -9 56 -14 63 -15 18 -63 15 -89 -8z m71 -64 c0 -18 -39 -31 -52 -18
-15 15 0 32 28 32 14 0 24 -6 24 -14z"/>
<path d="M1180 790 c-11 -11 -20 -31 -20 -45 0 -53 69 -85 105 -49 22 22 11
30 -20 14 -20 -11 -27 -11 -40 0 -24 20 -18 29 23 28 58 -1 62 1 55 20 -19 52
-67 68 -103 32z m54 -6 c26 -10 18 -24 -14 -24 -29 0 -38 9 -23 23 8 9 17 9
37 1z"/>
<path d="M1675 793 c4 -10 15 -42 25 -70 19 -52 19 -53 -1 -63 -24 -14 -25
-30 0 -30 25 0 35 14 65 94 30 79 31 86 12 86 -12 0 -23 -23 -32 -68 -4 -23
-13 -26 -20 -6 -18 57 -28 74 -41 74 -10 0 -13 -6 -8 -17z"/>
<path d="M2080 745 c0 -51 3 -65 15 -65 12 0 15 14 15 65 0 51 -3 65 -15 65
-12 0 -15 -14 -15 -65z"/>
<path d="M2205 790 c-18 -19 -17 -20 3 -20 11 0 24 5 27 10 8 12 16 12 35 0
13 -9 13 -11 0 -20 -8 -5 -25 -10 -36 -10 -30 0 -51 -27 -37 -48 7 -12 25 -17
65 -18 l55 -1 -5 51 c-2 28 -9 57 -14 64 -16 19 -73 15 -93 -8z m75 -64 c0
-16 -41 -29 -53 -17 -14 14 2 31 29 31 14 0 24 -6 24 -14z"/>
<path d="M2710 744 c0 -49 3 -64 14 -64 11 0 16 14 18 48 2 38 7 49 26 57 33
15 27 22 -18 22 l-40 0 0 -63z"/>
<path d="M2800 745 c0 -51 3 -65 15 -65 12 0 15 14 15 65 0 51 -3 65 -15 65
-12 0 -15 -14 -15 -65z"/>
<path d="M2870 790 c-11 -11 -20 -33 -20 -49 0 -51 69 -81 105 -45 22 22 11
30 -20 14 -20 -10 -27 -11 -40 0 -23 19 -8 30 40 30 38 0 43 3 38 18 -19 52
-67 68 -103 32z m68 -17 c2 -9 -7 -13 -27 -13 -31 0 -42 14 -18 23 19 8 40 3
45 -10z"/>
<path d="M533 573 c-4 -10 -11 -22 -17 -26 -8 -6 -7 -10 2 -14 7 -3 12 -25 12
-59 0 -41 4 -54 15 -54 11 0 15 13 15 54 0 34 5 56 13 59 9 4 8 8 -3 16 -12 9
-12 11 3 17 9 3 14 10 11 15 -9 16 -44 10 -51 -8z"/>
<path d="M1120 505 c0 -69 3 -85 15 -85 12 0 15 14 15 63 l0 62 38 -62 c22
-38 44 -63 55 -63 15 0 17 11 17 85 0 69 -3 85 -15 85 -12 0 -15 -14 -15 -62
l0 -61 -40 61 c-56 88 -70 83 -70 -23z"/>
<path d="M1800 505 c0 -69 3 -85 15 -85 10 0 15 11 15 35 0 35 0 35 45 35 50
0 72 23 59 63 -10 31 -22 37 -81 37 l-53 0 0 -85z m88 59 c17 -3 22 -10 20
-27 -2 -18 -11 -23 -40 -25 -36 -3 -38 -2 -38 26 0 30 12 35 58 26z"/>
<path d="M2200 580 c0 -5 7 -10 15 -10 8 0 15 5 15 10 0 6 -7 10 -15 10 -8 0
-15 -4 -15 -10z"/>
<path d="M2563 583 c-7 -3 -13 -11 -13 -18 0 -7 -6 -16 -12 -18 -10 -4 -10 -7
-1 -14 6 -5 13 -31 15 -58 3 -46 5 -50 31 -53 29 -4 37 12 12 22 -10 3 -15 19
-15 46 0 29 4 40 15 40 8 0 15 5 15 10 0 6 -6 10 -14 10 -8 0 -16 8 -18 18 -2
11 -9 17 -15 15z"/>
<path d="M600 484 c0 -49 3 -64 14 -64 11 0 16 14 18 47 2 38 8 50 26 59 28
14 19 21 -25 22 l-33 1 0 -65z"/>
<path d="M700 530 c-11 -11 -20 -31 -20 -45 0 -14 9 -34 20 -45 11 -11 31 -20
45 -20 14 0 34 9 45 20 11 11 20 31 20 45 0 14 -9 34 -20 45 -11 11 -31 20
-45 20 -14 0 -34 -9 -45 -20z m68 -12 c32 -32 1 -89 -37 -68 -26 13 -28 55 -3
69 22 13 26 13 40 -1z"/>
<path d="M830 485 c0 -51 3 -65 15 -65 11 0 15 12 15 49 0 35 4 51 16 55 26
10 34 -3 34 -55 0 -37 4 -49 15 -49 11 0 15 12 15 49 0 35 4 51 16 55 26 10
34 -3 34 -55 0 -37 4 -49 15 -49 19 0 21 100 3 118 -14 14 -54 16 -63 2 -4 -6
-13 -5 -25 3 -16 9 -24 9 -40 -1 -12 -7 -20 -8 -20 -2 0 5 -7 10 -15 10 -12 0
-15 -14 -15 -65z"/>
<path d="M1310 530 c-11 -11 -20 -31 -20 -45 0 -14 9 -34 20 -45 11 -11 31
-20 45 -20 14 0 34 9 45 20 11 11 20 31 20 45 0 14 -9 34 -20 45 -11 11 -31
20 -45 20 -14 0 -34 -9 -45 -20z m68 -12 c30 -30 -2 -93 -36 -71 -23 14 -26
47 -7 67 20 19 27 20 43 4z"/>
<path d="M1440 504 c0 -68 11 -82 65 -82 l45 1 0 64 c0 49 -3 63 -15 63 -12 0
-15 -11 -13 -46 1 -30 -4 -49 -13 -55 -25 -16 -34 -4 -37 49 -2 37 -7 52 -18
52 -10 0 -14 -12 -14 -46z"/>
<path d="M1580 485 c0 -51 3 -65 15 -65 11 0 15 12 15 49 0 35 4 51 16 55 26
10 34 -3 34 -55 0 -38 4 -49 15 -49 13 0 15 11 13 56 -3 66 -23 88 -58 66 -12
-7 -20 -8 -20 -2 0 5 -7 10 -15 10 -12 0 -15 -14 -15 -65z"/>
<path d="M1960 484 c0 -49 3 -64 14 -64 11 0 16 14 18 47 2 39 7 50 28 60 14
7 23 13 20 14 -3 1 -22 3 -42 4 l-38 4 0 -65z"/>
<path d="M2070 537 c-54 -27 -27 -117 35 -117 32 0 65 33 65 65 0 29 -32 65
-57 65 -10 0 -29 -6 -43 -13z m58 -19 c16 -16 15 -53 -2 -67 -23 -19 -56 4
-56 39 0 26 6 31 41 39 3 0 10 -4 17 -11z"/>
<path d="M2200 471 c0 -54 -4 -81 -12 -84 -7 -2 -9 -8 -5 -13 4 -4 16 -3 25 2
24 16 31 174 7 174 -12 0 -15 -15 -15 -79z"/>
<path d="M2270 530 c-56 -56 21 -143 86 -96 26 20 10 32 -21 16 -20 -11 -27
-11 -40 0 -25 21 -17 29 27 27 34 -2 43 2 46 16 5 25 -26 57 -55 57 -12 0 -32
-9 -43 -20z m68 -17 c2 -9 -7 -13 -27 -13 -31 0 -42 14 -18 23 19 8 40 3 45
-10z"/>
<path d="M2410 530 c-39 -39 -11 -110 43 -110 22 0 57 27 57 43 0 13 -23 7
-35 -9 -18 -26 -57 -1 -53 33 4 34 35 54 51 33 16 -20 37 -23 37 -5 0 35 -69
46 -100 15z"/>
</g>
</svg>
