<svg xmlns="http://www.w3.org/2000/svg" xmlns:xlink="http://www.w3.org/1999/xlink" version="1.1" x="0px" y="0px" viewBox="0 0 100 80" enable-background="new 0 0 100 100" xml:space="preserve"><path d="M95.889,51.901c-0.979-2.102-2.941-4.903-2.241-6.444c0.701-1.541,2.451-5.323-0.491-8.336  c-2.94-3.012-3.501-1.961-6.443-5.253c-2.942-3.293-9.526-9.386-17.371-7.706c-7.846,1.681-15.201,14.08-0.491,26.969  c9.154,8.021,5.044,10.716,5.044,10.716c-5.23-8.027-25.77-11.848-39.77-5.973c-17.276,7.25-25.141,5.692-25.141,5.692  c-2.696-0.362-4.857-1.26-5.417-0.419c-0.56,0.84,5.324,4.902,7.145,7.283c1.822,2.383,3.083,5.745,8.966,6.866  c0.158,0.029,0.333,0.061,0.519,0.093c2.097-0.755,3.473-2.02,3.473-3.451c0,2.312,3.583,4.186,8.001,4.186  c4.42,0,8.002-1.873,8.002-4.186c0,2.312,3.583,4.186,8.002,4.186c4.419,0,8.002-1.873,8.002-4.186c0,2.312,3.582,4.186,8.003,4.186  c4.419,0,8-1.873,8-4.186c0,2.15,3.101,3.921,7.089,4.157c6.967-4.63,11.209-17.906-1.792-27.698  c-11.348-8.544-10.929-17.582-5.743-18.562c5.183-0.98,10.366,2.731,12.187,7.565c1.823,4.833,4.624,9.037,4.624,9.037  s5.744,7.844,7.146,8.686C96.59,55.965,96.87,54.002,95.889,51.901z M90.426,39.246c0.599-0.177,1.004,0.383,1.143,1.001  c-0.067-0.224-0.272-0.389-0.519-0.389c-0.299,0-0.542,0.244-0.542,0.543s0.243,0.542,0.542,0.542c0.3,0,0.543-0.243,0.543-0.542  c0-0.022-0.003-0.043-0.007-0.065c0.117,0.656-0.067,1.338-0.646,1.245C89.492,41.348,89.844,39.419,90.426,39.246z M95.423,54.749  c-1.262-0.233-6.865-8.778-6.865-8.778s0.653-1.261,1.635-2.102c0.98-0.84,0.577-1.774,0.577-1.774c0.298,0.187,0.823,0,0.823,0  c0,1.693,1.774,3.035,1.774,3.035c-0.98,1.402,0.794,4.25,1.635,5.791C95.842,52.462,96.683,54.982,95.423,54.749z"/></svg>